<?xml version="1.0" encoding="UTF-8"?>
<svg width="42px" height="34px" viewBox="0 0 42 34" version="1.1" xmlns="http://www.w3.org/2000/svg" xmlns:xlink="http://www.w3.org/1999/xlink">
    <!-- Generator: Sketch 60 (88103) - https://sketch.com -->
    <title>更多</title>
    <desc>Created with Sketch.</desc>
    <g id="页面-1" stroke="none" stroke-width="1" fill="none" fill-rule="evenodd">
        <g id="骷髅备份" transform="translate(-669.000000, -248.000000)" fill="#000000" fill-rule="nonzero">
            <g id="更多" transform="translate(669.000000, 248.000000)">
                <path d="M2.17782423,4.22046901 L39.8653684,4.22046901 C41.0580919,4.22046901 42.0216768,3.27985265 42.0216768,2.12048831 C42.0216768,0.961670823 41.0586387,0.0205076035 39.8653684,0.0205076035 L2.17782423,0.0205076035 C0.987288281,0.0205076035 0.0215159211,0.961123965 0.0215159211,2.12048831 C0.0215159211,3.27985265 0.987288281,4.22046901 2.17782423,4.22046901 Z M39.8648216,14.7203725 L2.17782423,14.7203725 C0.984553951,14.7203725 0.0215159211,15.6609889 0.0215159211,16.8203532 C0.0215159211,17.9797175 0.984553951,18.9203339 2.17782423,18.9203339 L39.8653684,18.9203339 C41.0580919,18.9203339 42.0216768,17.9797175 42.0216768,16.8203532 C42.0211299,15.6609889 41.0520763,14.7203725 39.8648216,14.7203725 L39.8648216,14.7203725 Z M39.8648216,29.5935952 L2.17782423,29.5935952 C0.987835181,29.5935952 0.0215159211,30.5342115 0.0215159211,31.6935759 C0.0215159211,32.8529402 0.987288281,33.7935566 2.17782423,33.7935566 L39.8653684,33.7935566 C41.0580919,33.7935566 42.0216768,32.8529402 42.0216768,31.6935759 C42.0211299,30.5347584 41.0580919,29.5935952 39.8648216,29.5935952 Z" id="形状"></path>
            </g>
        </g>
    </g>
</svg>